<svg width="59" height="70" viewBox="0 0 59 70" fill="none" xmlns="http://www.w3.org/2000/svg">
<path d="M49.1719 36.9844C49.1406 31.25 51.7344 26.9219 56.9844 23.7344C54.0469 19.5312 49.6094 17.2188 43.75 16.7656C38.2031 16.3281 32.1406 20 29.9219 20C27.5781 20 22.2031 16.9219 17.9844 16.9219C9.26562 17.0625 0 23.875 0 37.7344C0 41.8281 0.75 46.0573 2.25 50.4219C4.25 56.1563 11.4688 70.2188 19 69.9844C22.9375 69.8906 25.7188 67.1875 30.8438 67.1875C35.8125 67.1875 38.3906 69.9844 42.7812 69.9844C50.375 69.875 56.9062 57.0938 58.8125 51.3438C48.625 46.5469 49.1719 37.2812 49.1719 36.9844ZM40.3281 11.3281C44.5938 6.26562 44.2031 1.65625 44.0781 0C40.3125 0.21875 35.9531 2.5625 33.4688 5.45312C30.7344 8.54688 29.125 12.375 29.4688 16.6875C33.5469 17 37.2656 14.9062 40.3281 11.3281Z" fill="black"/>
</svg>
