<svg width="56" height="56" viewBox="0 0 56 56" fill="none" xmlns="http://www.w3.org/2000/svg">
<path d="M16.9752 6.45721C20.4749 4.37965 24.536 3.19235 28.727 3.02147C32.9179 2.85058 37.0821 3.70251 40.7771 5.48671C44.472 7.27091 47.5596 9.92072 49.7118 13.1545C51.864 16.3884 53.0003 20.0854 53 23.8527C53 31.9708 51.2786 39.7247 48.1455 46.8391M10.4056 12.3539C7.89027 15.763 6.55255 19.7633 6.56037 23.8527C6.56767 27.7812 5.33302 31.6308 3 34.9539M9.1579 44.8485C14.9691 39.1021 18.1829 31.615 18.1703 23.8527C18.1703 21.0877 19.3935 18.4359 21.5707 16.4807C23.748 14.5255 26.701 13.4271 29.7802 13.4271C32.8593 13.4271 35.8124 14.5255 37.9896 16.4807C40.1669 18.4359 41.3901 21.0877 41.3901 23.8527C41.3901 25.3179 41.3251 26.7691 41.192 28.2037M29.7802 23.8527C29.7975 33.7949 25.8428 43.4129 18.6347 50.9594M39.1703 38.1817C37.4938 43.4552 34.8971 48.4566 31.4768 53" stroke="black" stroke-width="5" stroke-linecap="round" stroke-linejoin="round"/>
</svg>
