<svg width="25" height="25" viewBox="0 0 25 25" fill="none" xmlns="http://www.w3.org/2000/svg">
<path d="M25 12.5C25 13.621 24.8516 14.7078 24.5742 15.7409C24.2626 16.9098 23.7842 18.0114 23.1678 19.0183C20.9703 22.6062 17.0148 25 12.5 25C5.59589 25 0 19.4041 0 12.5C0 7.86073 2.52626 3.81279 6.27854 1.65525C7.20434 1.12443 8.20434 0.706621 9.25913 0.425799C10.2911 0.148402 11.3779 0 12.5 0C12.75 0 12.9977 0.00684932 13.2443 0.022831C19.5559 0.392694 24.6073 5.44521 24.9772 11.7557C24.9931 12.0023 25 12.25 25 12.5Z" fill="#F9612F"/>
<path d="M25 12.5C25 13.621 24.8516 14.7078 24.5742 15.7409C24.2625 16.9098 23.7842 18.0114 23.1678 19.0183C21.3356 20.0708 19.2112 20.6735 16.9463 20.6735C10.0422 20.6735 4.44632 15.0776 4.44632 8.17352C4.44632 5.78539 5.11527 3.55365 6.27851 1.65525C7.20431 1.12443 8.20431 0.706621 9.2591 0.425799C10.2911 0.148402 11.3778 0 12.5 0C12.75 0 12.9977 0.00684931 13.2443 0.022831C19.5559 0.392694 24.6073 5.44521 24.9771 11.7557C24.9931 12.0023 25 12.25 25 12.5Z" fill="#FA772F"/>
<path d="M25 12.5C25 13.621 24.8516 14.7078 24.5742 15.7409C23.5422 16.0183 22.4555 16.1667 21.3333 16.1667C14.4292 16.1667 8.83334 10.5708 8.83334 3.66667C8.83334 2.54566 8.98175 1.4589 9.25914 0.425799C10.2911 0.148402 11.3779 0 12.5 0C12.75 0 12.9977 0.00684932 13.2443 0.022831C19.5559 0.392694 24.6073 5.44521 24.9772 11.7557C24.9932 12.0023 25 12.25 25 12.5Z" fill="#FB8B30"/>
<path d="M24.9772 11.7557C18.6655 11.3858 13.6142 6.33447 13.2443 0.0228271C19.5559 0.39269 24.6073 5.4452 24.9772 11.7557Z" fill="#FBB64E"/>
</svg>
